<svg xmlns="http://www.w3.org/2000/svg" width="42" height="42" viewBox="0 0 42 42">
    <g fill="none" fill-rule="evenodd">
        <path fill="#FFF" fill-opacity="0" d="M0 0H42V42H0z"/>
        <g>
            <path fill="#FFF" stroke="#46433F" stroke-width="1.5" d="M12.987.75H37c.621 0 1.184.252 1.591.659.407.407.659.97.659 1.591h0v22c0 .621-.252 1.184-.659 1.591-.407.407-.97.659-1.591.659h0-24.013l-.556-1.244c-.146-.328-.39-.601-.694-.785-.532-.25-.976-.275-1.358-.18-.46.116-.84.408-1.074.826h0l-.624 1.383H3c-.621 0-1.184-.252-1.591-.659C1.002 26.184.75 25.621.75 25h0V3c0-.621.252-1.184.659-1.591C1.816 1.002 2.379.75 3 .75h5.68l.555 1.244c.197.44.555.76.973.92.418.16.897.161 1.339-.036.394-.176.709-.49.884-.884h0L12.987.75z" transform="translate(1 7)"/>
            <path fill="#FC7E37" d="M9.166 0l.754 1.688c.19.426.641.653 1.08.578v23.468c-.439-.075-.89.152-1.08.578L9.166 28H3c-1.657 0-3-1.343-3-3V3c0-1.657 1.343-3 3-3h6.166z" transform="translate(1 7)"/>
            <path fill="#46433F" fill-rule="nonzero" d="M30 15c1.657 0 3 1.343 3 3s-1.343 3-3 3-3-1.343-3-3 1.343-3 3-3zm2.232-7.315c.293.293.293.768 0 1.06L20.329 20.649c-.293.293-.768.293-1.06 0-.294-.292-.294-.767 0-1.06L31.17 7.685c.293-.293.768-.293 1.06 0zM30 16.5c-.828 0-1.5.672-1.5 1.5s.672 1.5 1.5 1.5 1.5-.672 1.5-1.5-.672-1.5-1.5-1.5zM21.5 7c1.657 0 3 1.343 3 3s-1.343 3-3 3-3-1.343-3-3 1.343-3 3-3zm0 1.5c-.828 0-1.5.672-1.5 1.5s.672 1.5 1.5 1.5S23 10.828 23 10s-.672-1.5-1.5-1.5zM10.083 3v1.5h1.5V3h-1.5zm0 3v1.5h1.5V6h-1.5zm0 3v1.5h1.5V9h-1.5zm0 3v1.5h1.5V12h-1.5zm0 3v1.5h1.5V15h-1.5zm0 3v1.5h1.5V18h-1.5zm0 3v1.5h1.5V21h-1.5zm0 3v1h1.5v-1h-1.5z" transform="translate(1 7)"/>
        </g>
    </g>
</svg>
