<svg width="12" height="12" viewBox="0 0 12 12" xmlns="http://www.w3.org/2000/svg">
    <g fill="none" fill-rule="evenodd">
        <path fill="#FFF" d="M-282-333H78v995h-360z"/>
        <path fill="#F9F9F9" d="M-282-18H78v461.999h-360z"/>
        <path fill="#F9F9F9" fill-rule="nonzero" d="M-282-18H78v461.999h-360z"/>
        <path d="M6 3.575a4.15 4.15 0 0 1 4.145 3.943l.005.207v2.374l1.1.001a.4.4 0 0 1 .08.792l-.08.008-1.1-.001v.001h-8.3v-.001l-1.1.001a.4.4 0 0 1-.08-.792l.08-.008 1.1-.001V7.725A4.15 4.15 0 0 1 5.793 3.58L6 3.575zm0 .8a3.35 3.35 0 0 0-3.345 3.166l-.005.184v2.374h6.7V7.725a3.35 3.35 0 0 0-2.985-3.33l-.181-.015L6 4.375zM1.953 2.218l.064.049 1.06 1a.4.4 0 0 1-.484.631l-.064-.05-1.06-.999a.4.4 0 0 1 .484-.631zm8.752.066a.4.4 0 0 1 .037.504l-.054.061-1.06 1-.064.05a.4.4 0 0 1-.538-.571l.053-.062 1.06-.999.065-.05a.4.4 0 0 1 .501.067zM6 .45a.4.4 0 0 1 .392.32L6.4.85v1.408a.4.4 0 0 1-.792.08l-.008-.08V.85c0-.22.18-.4.4-.4z" fill="#BBB8B5"/>
    </g>
</svg>
