<svg xmlns="http://www.w3.org/2000/svg" width="16" height="16" viewBox="0 0 16 16">
    <g fill="none" fill-rule="evenodd">
        <g fill="#FFF" fill-rule="nonzero">
            <g>
                <g>
                    <g>
                        <path d="M8 .35c4.225 0 7.65 3.425 7.65 7.65 0 4.225-3.425 7.65-7.65 7.65C3.775 15.65.35 12.225.35 8 .35 3.775 3.775.35 8 .35zm0 1.3C4.493 1.65 1.65 4.493 1.65 8c0 3.507 2.843 6.35 6.35 6.35 3.507 0 6.35-2.843 6.35-6.35 0-3.507-2.843-6.35-6.35-6.35zM8.2 4c.326 0 .597.24.643.554l.007.096V8.5c0 .198-.089.382-.239.504l-.08.056-3.2 1.899c-.308.183-.707.081-.89-.227-.165-.278-.099-.629.14-.83l.087-.061L7.55 8.13l.001-3.48c0-.326.24-.597.554-.643L8.2 4z" transform="translate(-118 -516) translate(100 502) translate(18 12) translate(0 2)"/>
                    </g>
                </g>
            </g>
        </g>
    </g>
</svg>
