<svg width="22" height="22" viewBox="0 0 22 22" xmlns="http://www.w3.org/2000/svg">
    <path d="M11 .458c2.493 0 4.583 1.829 4.583 4.183 0 .134-.007.268-.02.4h2.892c.964 0 1.763.747 1.83 1.708l.785 10.45c.009.072.013.145.013.218 0 2.278-4.514 4.125-10.083 4.125S.917 19.695.917 17.417c0-.083.006-.165.017-.247l.782-10.421a1.833 1.833 0 0 1 1.829-1.707h2.892a3.865 3.865 0 0 1-.02-.401C6.417 2.287 8.507.458 11 .458zM9.93 9.717a.763.763 0 0 0-.763.762v5.08a.763.763 0 0 0 1.209.618l3.516-2.54a.763.763 0 0 0 0-1.237l-3.516-2.539a.763.763 0 0 0-.447-.144zM11 1.833c-1.772 0-3.208 1.257-3.208 2.808 0 .136.01.27.032.4h6.352l.018-.13a2.49 2.49 0 0 0 .014-.27c0-1.55-1.436-2.808-3.208-2.808z" fill="#FFF" fill-rule="nonzero"/>
</svg>
