<svg width="24" height="24" viewBox="0 0 24 24" xmlns="http://www.w3.org/2000/svg">
    <g fill-rule="nonzero" fill="none">
        <path d="M12 0C5.373 0 0 5.373 0 12s5.373 12 12 12 12-5.373 12-12S18.627 0 12 0z" fill="#E0E0E0"/>
        <g transform="translate(9.761 5.351)" fill="#FFF">
            <ellipse cx="2.196" cy="1.351" rx="1.329" ry="1.351"/>
            <path d="M2.406 4.877a.7.7 0 0 1 .693.605l.007.095v5.939a.7.7 0 0 1-1.394.095l-.006-.095V6.277H.7a.7.7 0 0 1-.694-.605L0 5.577a.7.7 0 0 1 .605-.693L.7 4.877h1.706z"/>
            <path d="M4.12 11.503a.7.7 0 0 1 .095 1.393l-.095.007H.696A.7.7 0 0 1 .6 11.509l.095-.006H4.12z"/>
        </g>
    </g>
</svg>
