<svg xmlns="http://www.w3.org/2000/svg" width="22" height="22" viewBox="0 0 22 22">
    <g fill="none" fill-rule="evenodd">
        <g fill="#BBB8B5">
            <g>
                <g>
                    <path d="M12.736.617l7.671 6.242c.428.348.676.87.676 1.422v10.172C20.347 20.435 16.05 22 11 22S1.652 20.394.917 18.412V8.28c0-.552.248-1.074.676-1.422L9.264.617c1.011-.823 2.46-.823 3.472 0zm.556 13.591H8.708v6.3l.076.008c.709.07 1.451.109 2.216.109.765 0 1.507-.039 2.216-.109l.076-.007v-6.3zm-3.16-12.525L2.461 7.925c-.107.087-.17.218-.17.356v9.662l.03.078c.337.908 2.303 1.836 5.012 2.3v-7.488h7.334v7.488l.01-.001c2.704-.465 4.666-1.392 5.004-2.3l.027-.074V8.28c0-.138-.062-.269-.169-.356l-7.671-6.242c-.506-.41-1.23-.41-1.736 0z" transform="translate(-25.000000, -708.000000) translate(0.000000, 695.000000) translate(25.000000, 13.000000)"/>
                </g>
            </g>
        </g>
    </g>
</svg>
