<svg width="24" height="24" viewBox="0 0 24 24" xmlns="http://www.w3.org/2000/svg">
    <path d="M17.625 1.35a6.275 6.275 0 0 1 6.273 6.405c.002.063.002.063.002.132 0 4.48-3.864 9.483-11.516 15.092a.65.65 0 0 1-.768 0C3.964 17.369.1 12.367.1 7.887c0-.07 0-.07.002-.1L.1 7.625A6.275 6.275 0 0 1 12 4.839a6.28 6.28 0 0 1 5.625-3.489zM22.4 7.988l-.002-.124.002-.133a4.881 4.881 0 0 0-9.698-.796.638.638 0 0 1-.618.535H11.917a.638.638 0 0 1-.62-.535A4.882 4.882 0 0 0 1.6 7.72l.002.187-.002.08c0 3.806 3.443 8.332 10.4 13.5 6.957-5.168 10.4-9.694 10.4-13.5z" fill="#FFF" fill-rule="nonzero"/>
</svg>
