<svg width="16" height="16" viewBox="0 0 16 16" xmlns="http://www.w3.org/2000/svg">
    <path d="M8 .333A2.667 2.667 0 0 1 10.667 3v1.34c2.045.124 3.666 1.865 3.666 3.993v4.334c0 1.657-2.91 3-6.5 3s-6.5-1.343-6.5-3V8.333c0-2.209 1.746-4 3.9-4h.1V3A2.667 2.667 0 0 1 8 .333zM10.433 5.2h-5.2c-1.687 0-3.055 1.403-3.055 3.133v4.334c0 .989 2.48 2.133 5.655 2.133 3.176 0 5.655-1.144 5.655-2.133V8.333c0-1.73-1.367-3.133-3.055-3.133zM7.958 7a2 2 0 0 1 .475 3.943v1.624a.433.433 0 1 1-.866 0v-1.605A2 2 0 0 1 7.957 7zm0 .867a1.133 1.133 0 0 0-.223 2.245l.248.049.245-.06a1.134 1.134 0 0 0-.27-2.234zM8 1.2A1.8 1.8 0 0 0 6.2 3v1.333h3.6V3A1.8 1.8 0 0 0 8 1.2z" fill="#46433F" fill-rule="nonzero"/>
</svg>
