<svg xmlns="http://www.w3.org/2000/svg" width="18" height="18" viewBox="0 0 18 18">
    <g fill="none" fill-rule="evenodd">
        <g fill="#F55B04" fill-rule="nonzero">
            <g>
                <path d="M9 0c4.97 0 9 4.03 9 9s-4.03 9-9 9-9-4.03-9-9 4.03-9 9-9zm0 .975C4.568.975.975 4.568.975 9S4.568 17.025 9 17.025 17.025 13.432 17.025 9 13.432.975 9 .975zM9.75 6.9v7.05h-1.5V6.9h1.5zM9 4.05c.518 0 .938.42.938.938 0 .517-.42.937-.938.937s-.938-.42-.938-.938c0-.517.42-.937.938-.937z" transform="translate(-18 -1095) translate(18 1095)"/>
            </g>
        </g>
    </g>
</svg>
