<svg xmlns="http://www.w3.org/2000/svg" width="12" height="12" viewBox="0 0 12 12">
    <g fill="none" fill-rule="evenodd">
        <g fill="#46433F" fill-rule="nonzero">
            <g>
                <g>
                    <g>
                        <g>
                            <g>
                                <path d="M10.81 1.19c.254.255.254.668 0 .923L6.921 6l3.887 3.887c.255.255.255.668 0 .922-.254.255-.667.255-.922 0L6 6.922l-3.887 3.887c-.255.255-.668.255-.922 0-.255-.254-.255-.667 0-.922L5.078 6 1.191 2.113c-.255-.255-.255-.668 0-.922.254-.255.667-.255.922 0L6 5.078l3.887-3.887c.255-.255.668-.255.922 0z" transform="translate(-300 -336) translate(18 156) translate(0 36) translate(48 132) translate(14 12) translate(220)"/>
                            </g>
                        </g>
                    </g>
                </g>
            </g>
        </g>
    </g>
</svg>
