<svg width="16" height="16" viewBox="0 0 16 16" xmlns="http://www.w3.org/2000/svg">
    <path d="M12.236 1.87c.65.143 1.154.617 1.349 1.268.114.38.189.824.222 1.32.052.775.312 1.497.587 2.26.119.33.241.67.345 1.013.394 1.309.342 2.488-.155 3.507-.426.874-1.093 1.629-2.039 2.102-1.075.539-2.69.835-4.545.835-1.856 0-3.47-.296-4.545-.835-.946-.473-1.613-1.228-2.04-2.102-.496-1.019-.548-2.199-.154-3.507.104-.343.226-.683.345-1.013.275-.764.535-1.485.587-2.26.033-.496.108-.94.222-1.32.196-.65.7-1.125 1.348-1.269a1.901 1.901 0 0 1 1.812.579c.13.144.261.309.405.494.53.678 1.078 1.38 2.02 1.38s1.49-.702 2.02-1.38c.144-.185.274-.35.404-.494a1.9 1.9 0 0 1 1.812-.579zm-6.634 9.18-.076.007-1.84.369a.375.375 0 0 0 .072.743l.076-.008 1.84-.368a.375.375 0 0 0-.072-.743zm4.796 0a.375.375 0 0 0-.072.743l1.84.368.076.008a.375.375 0 0 0 .072-.743l-1.84-.369zM8 9.825a.7.7 0 0 0-.21 1.368l.097.023.113.009.114-.01A.7.7 0 0 0 8 9.826zm-4.23-.639a.375.375 0 0 0-.085.742l1.835.402.075.009a.375.375 0 0 0 .085-.742l-1.835-.402zm8.465 0-.075.01-1.835.401a.375.375 0 0 0 .085.742l.075-.01 1.835-.401a.375.375 0 0 0-.085-.742zM5.25 7.025l-.122.01a.75.75 0 1 0 .348.025l-.104-.025-.122-.01zm5.5 0-.122.01a.75.75 0 1 0 .348.025l-.104-.025-.122-.01z" fill="#FF5833" fill-rule="evenodd"/>
</svg>
