<svg xmlns="http://www.w3.org/2000/svg" width="54" height="22" viewBox="0 0 54 22">
    <g fill="none" fill-rule="evenodd">
        <path fill="#F56B1D" d="M54 9.428V6.353c-.944 0-1.458-.771-1.458-1.639S53.195 3.143 54 3.143V0H0v3.143c.806 0 1.459.703 1.459 1.571S.806 6.286 0 6.286v3.142c.806 0 1.459.704 1.459 1.572 0 .868-.653 1.572-1.459 1.572v3.142c.806 0 1.459.704 1.459 1.572 0 .868-.653 1.571-1.459 1.571V22h54v-2.924c-.996 0-1.458-.77-1.458-1.639 0-.868.653-1.723 1.458-1.723v-3.051c-1.021 0-1.458-.795-1.458-1.663S53.195 9.428 54 9.428z"/>
        <path fill="#FFF" fill-rule="nonzero" d="M13.195 7.652V6.563H10.94v-.825H9.477v.825H7.222v1.089h5.973zm2.013 3.63V9.148h1.342V7.96h-1.342V5.804h-1.452v5.478h1.452zm-4.994-.077c.374 0 .715-.039 1.023-.116.308-.077.57-.187.787-.33.216-.143.383-.315.5-.517.117-.201.176-.43.176-.687 0-.257-.059-.488-.176-.693-.117-.205-.284-.38-.5-.523-.217-.143-.479-.253-.787-.33-.308-.077-.649-.115-1.023-.115-.374 0-.713.038-1.018.115-.304.077-.566.188-.786.33-.22.143-.389.318-.506.523-.117.205-.176.436-.176.693 0 .257.059.486.176.688.117.201.286.373.506.516.22.143.482.253.787.33.304.077.643.116 1.017.116zm0-1.023c-.337 0-.605-.051-.803-.154-.198-.103-.297-.26-.297-.473 0-.213.099-.372.297-.479.198-.106.466-.159.803-.159s.605.053.803.16c.198.106.297.265.297.478 0 .213-.099.37-.297.473-.198.103-.466.154-.803.154zm5.28 5.687v-1.056H9.972v-.561h5.236v-2.574H8.52v1.056h5.258v.528H8.531v2.607h6.963zm10.274-2.772V5.826h-1.463v7.271h1.463zm-5.511-1.496c.389 0 .75-.064 1.083-.193.334-.128.626-.306.875-.533.25-.227.444-.499.583-.814.14-.315.209-.656.209-1.023 0-.374-.07-.719-.209-1.034-.14-.315-.334-.587-.583-.814-.25-.227-.54-.405-.875-.534-.333-.128-.694-.192-1.083-.192s-.752.064-1.089.192c-.337.129-.629.307-.874.534-.246.227-.44.499-.584.814-.143.315-.214.66-.214 1.034 0 .367.072.708.215 1.023.143.315.337.587.583.814.245.227.537.405.874.534.337.128.7.192 1.089.192zm0-1.254c-.374 0-.691-.115-.952-.346-.26-.231-.39-.552-.39-.963 0-.418.13-.742.39-.973.26-.231.578-.347.952-.347.381 0 .698.115.951.347.254.23.38.555.38.973 0 .41-.127.732-.38.963-.252.23-.57.346-.951.346zm5.764 5.423v-1.155h-5.544v-2.233h-1.452v3.388h6.996zm6.754.154v-3.586h3.861v-1.177h-1.342c.169-.821.268-1.542.297-2.162.03-.62.044-1.19.044-1.71v-.913H28.54v1.155h5.698v.506c0 .169-.007.345-.022.528l-6.006.187.165 1.232 5.742-.297c-.03.227-.064.464-.104.71-.04.245-.09.5-.149.764h-6.38v1.177h3.839v3.586h1.452zm13.97-3.663v-1.155h-3.861v-.913h2.97V9.049h-1.21V7.344h1.287V6.189h-7.535v1.155h1.287v1.705h-1.221v1.144h2.97v.913h-3.839v1.155h9.152zm-3.542-3.212h-2.079V7.344h2.079v1.705zm2.519 6.721v-1.155h-5.566V12.91h-1.452v2.86h7.018z"/>
    </g>
</svg>
