<svg xmlns="http://www.w3.org/2000/svg" width="18" height="18" viewBox="0 0 18 18">
    <g fill="none" fill-rule="evenodd">
        <g fill="#FFB123" fill-rule="nonzero">
            <g>
                <g>
                    <g>
                        <path d="M9.645 1.56c.39.16.706.459.887.837l.04.09 1.276 3.11 3.353.253c.878.066 1.549.787 1.571 1.648v.084l-.004.09c-.032.42-.219.813-.523 1.103l-.072.065-2.565 2.174.796 3.268c.209.855-.27 1.716-1.081 2.003l-.08.026-.087.024c-.41.1-.841.043-1.21-.157l-.085-.048L9 14.363 6.139 16.13c-.746.46-1.71.274-2.235-.403l-.052-.072-.051-.078c-.222-.36-.302-.787-.226-1.2l.02-.095.796-3.268L1.827 8.84C1.16 8.273 1.038 7.3 1.52 6.593l.051-.073.06-.075c.274-.322.656-.53 1.072-.585l.097-.01 3.353-.253 1.276-3.11c.356-.869 1.349-1.284 2.217-.928zM8.4 2.818l-.026.055L6.858 6.57l-3.983.3c-.157.013-.305.08-.406.174l-.04.042-.043.052c-.202.268-.175.643.057.88l.046.043 3.045 2.583-.945 3.881c-.037.154-.02.315.04.44l.027.052.036.055c.191.276.557.367.854.219l.055-.03L9 13.16l3.399 2.099c.134.083.293.116.431.098l.058-.01.061-.017c.324-.096.524-.418.473-.749l-.011-.058-.946-3.881 3.046-2.583c.12-.103.201-.244.227-.38l.008-.059.004-.063c.008-.337-.237-.627-.566-.681l-.06-.007-3.983-.3-1.515-3.696c-.07-.167-.202-.3-.37-.368-.326-.134-.696.006-.856.313z" transform="translate(-123 -547) translate(18 419) translate(0 125) translate(105 3)"/>
                    </g>
                </g>
            </g>
        </g>
    </g>
</svg>
