<svg xmlns="http://www.w3.org/2000/svg" width="18" height="18" viewBox="0 0 18 18">
    <g fill="none" fill-rule="evenodd">
        <g fill="#FFB123" fill-rule="nonzero">
            <g>
                <g>
                    <g>
                        <path d="M7.428 2.486L6.152 5.597l-3.353.253c-.454.034-.874.248-1.168.595l-.06.075c-.54.714-.435 1.733.256 2.32l2.564 2.174-.795 3.268c-.108.442-.034.908.205 1.295l.05.078c.512.736 1.516.951 2.288.475L9 14.363l2.861 1.767c.387.239.853.312 1.295.205l.087-.024c.86-.258 1.376-1.147 1.161-2.029l-.796-3.268 2.565-2.174c.346-.295.56-.715.595-1.168l.004-.09c.02-.898-.665-1.664-1.57-1.732l-3.354-.253-1.276-3.11c-.173-.421-.507-.755-.927-.928-.868-.356-1.86.06-2.217.927z" transform="translate(-85 -547) translate(18 419) translate(0 125) translate(67 3)"/>
                    </g>
                </g>
            </g>
        </g>
    </g>
</svg>
