<svg xmlns="http://www.w3.org/2000/svg" width="12" height="12" viewBox="0 0 12 12">
    <g fill="none" fill-rule="evenodd">
        <g fill="#BBB8B5">
            <g>
                <g>
                    <g>
                        <g>
                            <path d="M6.43 1.04c.26.106.47.306.592.558l.026.06.85 2.073 2.236.169c.585.044 1.033.525 1.048 1.099v.055l-.003.06c-.022.281-.146.543-.349.736l-.048.043-1.71 1.45.53 2.178c.14.57-.18 1.144-.72 1.336l-.053.017-.058.016c-.274.066-.561.029-.807-.104l-.056-.033L6 9.575l-1.908 1.178c-.497.307-1.139.183-1.489-.269l-.035-.048-.034-.052c-.148-.239-.201-.524-.15-.8l.013-.063.53-2.178-1.709-1.45c-.445-.378-.526-1.025-.206-1.498l.035-.048.04-.05c.182-.215.437-.353.714-.39l.065-.007L4.1 3.731l.851-2.074c.238-.578.9-.855 1.478-.617zm-.818.957l-.016.036-.98 2.389-2.575.194c-.102.008-.198.05-.263.112l-.026.027-.028.034c-.13.173-.113.415.037.568l.03.028 1.969 1.67-.611 2.51c-.025.099-.013.203.025.284l.018.033.023.036c.124.178.36.237.552.141l.036-.02L6 8.684l2.197 1.357c.087.053.19.075.28.063l.036-.006.04-.01c.21-.064.339-.272.306-.485l-.008-.038-.611-2.509 1.97-1.67c.077-.066.13-.157.146-.246l.005-.037.003-.041c.005-.218-.153-.406-.367-.44l-.038-.005-2.575-.194-.98-2.389c-.044-.108-.13-.194-.238-.238-.211-.087-.45.004-.554.202z" transform="translate(-189 -399) translate(18 176) translate(171) translate(0 221) translate(0 2)"/>
                        </g>
                    </g>
                </g>
            </g>
        </g>
    </g>
</svg>
