<svg xmlns="http://www.w3.org/2000/svg" xmlns:xlink="http://www.w3.org/1999/xlink" width="44" height="44" viewBox="0 0 44 44">
    <defs>
        <path id="dmnd49ma4a" d="M0 0H22V44H0z"/>
    </defs>
    <g fill="none" fill-rule="evenodd">
        <g>
            <path fill="#FFB123" fill-rule="nonzero" d="M23.576 3.812c.955.392 1.727 1.123 2.17 2.049l.096.216 3.12 7.605 8.197.618c2.144.161 3.785 1.924 3.84 4.028v.205l-.01.22c-.078 1.029-.536 1.989-1.279 2.696l-.176.159-6.27 5.316 1.947 7.988c.509 2.089-.66 4.194-2.645 4.896l-.194.064-.213.057c-1.002.245-2.057.106-2.96-.382l-.205-.119L22 35.11l-6.994 4.318c-1.824 1.126-4.178.671-5.462-.985l-.129-.176-.125-.19c-.542-.878-.736-1.924-.55-2.933l.05-.232 1.944-7.988-6.268-5.316c-1.632-1.385-1.928-3.76-.754-5.493l.127-.177.147-.184c.667-.786 1.602-1.294 2.619-1.43l.236-.024 8.197-.618 3.12-7.605c.87-2.121 3.297-3.136 5.418-2.265zM20.534 6.89l-.063.137-3.706 9.031-9.736.735c-.386.029-.748.192-.994.422l-.098.103-.105.129c-.494.654-.428 1.57.14 2.15l.111.104 7.445 6.315-2.31 9.488c-.091.375-.048.77.096 1.076l.067.126.088.135c.468.674 1.362.896 2.089.535l.134-.075L22 32.171l8.308 5.13c.329.203.717.284 1.055.241l.141-.025.15-.04c.79-.237 1.28-1.024 1.156-1.83l-.028-.143-2.312-9.488 7.446-6.315c.295-.25.492-.595.556-.929l.02-.142.008-.155c.018-.825-.58-1.533-1.385-1.665l-.144-.017-9.737-.735-3.705-9.032c-.168-.409-.493-.733-.902-.901-.797-.327-1.703.014-2.093.765z"/>
            <g>
                <mask id="naqiqi7p2b" fill="#fff">
                    <use xlink:href="#dmnd49ma4a"/>
                </mask>
                <path fill="#FFB123" fill-rule="nonzero" d="M18.158 6.077l-3.12 7.605-8.197.618c-1.108.083-2.136.607-2.855 1.454l-.147.184c-1.32 1.745-1.061 4.237.627 5.67l6.268 5.316-1.945 7.988c-.263 1.08-.082 2.219.501 3.164l.125.191c1.25 1.8 3.704 2.326 5.59 1.161L22 35.11l6.994 4.318c.946.584 2.085.764 3.165.501l.213-.057c2.101-.63 3.364-2.804 2.839-4.96l-1.947-7.988 6.27-5.316c.847-.719 1.37-1.747 1.454-2.855l.01-.22c.051-2.194-1.626-4.066-3.839-4.233l-8.198-.618-3.12-7.605c-.42-1.027-1.237-1.843-2.265-2.265-2.121-.87-4.547.144-5.418 2.265z" mask="url(#naqiqi7p2b)"/>
            </g>
        </g>
    </g>
</svg>
