<svg width="270" height="88" viewBox="0 0 270 88" xmlns="http://www.w3.org/2000/svg">
    <g transform="translate(94 5)" fill="none" fill-rule="evenodd">
        <path d="M43.112 68.157c2.47.007 4.868.066 7.158.172a5.699 5.699 0 0 0 10.066.843c7.445.957 12.28 2.503 12.28 4.247 0 2.907-13.431 5.263-30 5.263-16.568 0-30-2.356-30-5.263 0-1.73 4.76-3.266 12.11-4.225a5.702 5.702 0 0 0 10.049-.856c2.498-.119 5.128-.182 7.841-.182z" fill-opacity=".4" fill="#EDEDED"/>
        <path d="M27.5 57.616a8.5 8.5 0 1 1 0 17 8.5 8.5 0 0 1 0-17zm29.35 0a8.5 8.5 0 1 1 0 17 8.5 8.5 0 0 1 0-17zm-29.35 2.8a5.7 5.7 0 1 0 0 11.4 5.7 5.7 0 0 0 0-11.4zm29.35 0a5.7 5.7 0 1 0 0 11.4 5.7 5.7 0 0 0 0-11.4zM11.6 4.4a1.4 1.4 0 0 1 1.381 1.171L14.7 15h31.132a18.548 18.548 0 0 0-.318 2.8H15.272l.528 3.143a681.288 681.288 0 0 0 1.702 9.577l.598 3.191c.96 5.054 1.789 9.164 2.482 12.324l.433 1.925.017.044.054.165.044.17c-.023-.102-.034-.138-.01-.12l.143.14c.212.2.524.433.927.681 1.109.681 2.729 1.37 4.701 1.98 4.402 1.362 10.002 2.18 15.611 2.18 5.738 0 11.227-.854 15.495-2.287 1.876-.63 3.411-1.341 4.469-2.046.384-.256.684-.498.893-.71l.2-.216c.006-.004.008 0 .006.011l.046-.154.036-.102.43-1.625c.8-3.07 1.535-6.14 2.203-9.21a18.33 18.33 0 0 0 2.996-.624 234.456 234.456 0 0 1-2.985 12.412h-.013c-.81 3.275-10.717 7.254-23.314 7.35l-.462.001c-12.427 0-23.374-3.796-24.104-7.047h-.026l-.342-1.495c-.737-3.292-1.63-7.7-2.68-13.224a684.99 684.99 0 0 1-2.16-11.947L10.53 7.2H1.4a1.4 1.4 0 1 1 0-2.8h10.2z" fill="#EDEDED" fill-rule="nonzero"/>
        <circle fill="#EDEDED" opacity=".4" cx="64" cy="18.5" r="18.5"/>
        <path d="m68.081.453-.626 2.776a15.711 15.711 0 0 0-3.459-.383V0c1.387 0 2.754.153 4.085.453zm7.416 3.555-1.77 2.229a15.662 15.662 0 0 0-2.947-1.849l1.235-2.564a18.508 18.508 0 0 1 3.482 2.184zm5.146 6.411-2.56 1.245a15.665 15.665 0 0 0-1.86-2.94l2.222-1.779a18.51 18.51 0 0 1 2.198 3.474zm1.853 7.92-2.846.024a15.693 15.693 0 0 0-.414-3.455l2.771-.65a18.54 18.54 0 0 1 .489 4.08zm-1.757 8.04-2.575-1.213a15.527 15.527 0 0 0 1.122-3.29l2.78.61a18.373 18.373 0 0 1-1.327 3.893zm-5.054 6.461-1.8-2.205c.902-.735 1.72-1.57 2.438-2.485l2.24 1.756a18.602 18.602 0 0 1-2.878 2.934zm-7.31 3.638-.671-2.766a15.532 15.532 0 0 0 3.265-1.193l1.27 2.547a18.378 18.378 0 0 1-3.864 1.412zm-8.268.112.595-2.783c.921.197 1.862.31 2.819.34l.647.006.03 2.846h-.197c-1.323 0-2.624-.137-3.894-.41zm-7.452-3.474L54.4 30.87a15.654 15.654 0 0 0 2.967 1.817l-1.207 2.577a18.5 18.5 0 0 1-3.506-2.147zm-5.215-6.354 2.546-1.272c.52 1.04 1.155 2.02 1.892 2.92l-2.202 1.803a18.518 18.518 0 0 1-2.236-3.45zm-1.94-7.9 2.846-.055c.022 1.174.174 2.329.45 3.45l-2.764.68a18.518 18.518 0 0 1-.532-4.076zm1.671-8.063 2.587 1.186a15.526 15.526 0 0 0-1.086 3.303l-2.786-.581c.282-1.351.713-2.66 1.285-3.908zm4.982-6.511 1.823 2.185a15.756 15.756 0 0 0-2.41 2.511l-2.259-1.732a18.602 18.602 0 0 1 2.846-2.964zM59.422.57l.701 2.759c-1.129.287-2.219.7-3.251 1.229l-1.298-2.534A18.381 18.381 0 0 1 59.422.57zm4.568 2.276-.336.004-.061-2.846.396-.004.001 2.846z" fill="#EDEDED"/>
        <path d="M64.2 23.2c-.467 0-.887-.11-1.26-.33a2.998 2.998 0 0 1-.96-.92 4.475 4.475 0 0 1-.61-1.4c-.14-.54-.21-1.13-.21-1.77v-.04c0-.64.073-1.23.22-1.77.147-.54.357-1.01.63-1.41.273-.4.6-.713.98-.94.38-.227.797-.34 1.25-.34.467 0 .887.11 1.26.33.373.22.69.527.95.92s.463.86.61 1.4c.147.54.22 1.13.22 1.77v.04c0 .64-.073 1.233-.22 1.78a4.632 4.632 0 0 1-.62 1.41c-.267.393-.59.703-.97.93-.38.227-.803.34-1.27.34zm.04 2.78c.933 0 1.783-.183 2.55-.55a5.761 5.761 0 0 0 1.96-1.52c.54-.647.957-1.41 1.25-2.29.293-.88.44-1.827.44-2.84v-.04c0-1.013-.15-1.96-.45-2.84a7.126 7.126 0 0 0-1.27-2.3 5.92 5.92 0 0 0-1.97-1.54c-.767-.373-1.617-.56-2.55-.56-.92 0-1.763.183-2.53.55a5.761 5.761 0 0 0-1.96 1.52c-.54.647-.96 1.41-1.26 2.29-.3.88-.45 1.827-.45 2.84v.04c0 1.013.15 1.96.45 2.84.3.88.723 1.647 1.27 2.3a5.92 5.92 0 0 0 1.97 1.54c.767.373 1.617.56 2.55.56z" fill="#E0E0E0"/>
    </g>
</svg>
