<?xml version="1.0" encoding="utf-8"?>
<!-- Generator: Adobe Illustrator 26.1.0, SVG Export Plug-In . SVG Version: 6.00 Build 0)  -->
<svg version="1.1" id="Layer_1" xmlns="http://www.w3.org/2000/svg" xmlns:xlink="http://www.w3.org/1999/xlink" width="70" height="37" x="0px" y="0px" 
	 viewBox="0 0 70 37.1" enable-background="new 0 0 70 37.1" xml:space="preserve">
<style type="text/css">
	.st0{fill:#FF5833;}
</style>
<g>
	<path class="st0" d="M67.6,30.8c-0.1-0.1-0.5-0.2-0.8-0.2c-2.6-0.3-5.4-0.8-6.8-3.3c-1.1-2.1-0.6-4.3,0-5.8c0.7-1.9,0.8-4.1,0-6
		c-0.1-0.1-0.1-0.3-0.2-0.4c0.3-0.1,0.5-0.3,0.8-0.4c1.7-1.1,3-2.8,3.3-4.6c0.3-1.5-0.1-3-1-4.3C61,2.9,57,2.1,51.4,3.2
		C51,3.3,48.5,3.8,47.6,4c-1.3,0.2-2.6,0.2-3.8,0c-1.4-0.3-2.5-0.7-3.2-1.4C40,2,39.9,1.3,39.4,0.9c-0.4-0.4-1.1-0.6-1.6-0.6
		c-0.9,0.1-1.6,0.6-1.9,1.4c-0.3,1,0.1,2.1,0.8,2.8C38.4,6,40.5,6.8,42.6,7c1,0.1,2.4,0.1,3.3,0.1c1.1-0.1,2.4-0.2,3.6-0.5
		c0.5-0.1,3.6-0.9,5.4-0.9c2-0.1,4.1,0,5.5,1.4c1,1,1.1,2.5,0.3,3.7c-0.6,0.8-1.4,1.4-2.3,1.8c-0.8-1-3-3.2-7.9-3.7
		c-6.9-0.7-12.5,3.2-18,3.4c-4.3,0.2-7.1-0.5-9-3.5c-0.6-1-1.2-2-1.8-2.8c-0.7-1-1.8-1.8-2.6-1.7c-0.7,0.1-1.9,0.9-3.3,2.6
		c-0.5,0.6-1.8,0.6-3.1,0.7c-2.7,0.2-3.3,0.2-3.9-0.4C7.4,5.6,6.6,4.8,6.1,4.9c-0.4,0-1,0.3-1.7,1.2C3,7.9,2.2,9.7,1.5,11.9
		c-0.9,2.7-1.4,5.8-0.2,8.4c2.1,4.7,7.3,5.8,11.9,5.8c0.7,0,1.5,0,2.3-0.1c0.2,0,0.4,0.2,0.3,0.4c-0.9,1.6-3.2,2.9-5.9,3.4
		c-1,0.2-3,0.3-3.9,0.5c-1.4,0.3-2.3,1.5-2.3,3c0,1.4,1,2.6,2.3,3c0.8,0.2,2.4,0.2,3.5,0.2c4.8,0,10.7-2.1,12.5-2.9
		c1.9-0.9,3.7-1.9,5.3-2.6c3.4-1.5,7-2.3,10.7-2.3c3.9,0,7.5,0.7,11,2.4c4.4,2.2,8.5,5.4,16,5.4c1.9,0,2.6-0.3,2.6-0.3
		c1.3-0.3,2.1-1.5,2.1-2.8C69.5,32.3,68.7,31.2,67.6,30.8z M3.5,13.9c0-0.5,0.4-1,1-1h0.1c0.5,0,1,0.4,1,1V14c0,0.5-0.4,1-1,1H4.5
		c-0.5,0-1-0.4-1-1V13.9z M6.7,19.9L2.9,21c0,0-0.1,0-0.1,0c-0.2,0-0.4-0.1-0.4-0.3c-0.1-0.2,0.1-0.5,0.3-0.6L6.5,19
		C6.7,19,7,19.1,7,19.3C7.1,19.6,7,19.8,6.7,19.9z M7,17.6c-0.1,0.2-0.2,0.3-0.4,0.3c-0.1,0-0.1,0-0.2,0c-1.3-0.6-2.9-1.1-4.7-1.3
		c-0.2,0-0.4-0.2-0.4-0.5c0-0.2,0.2-0.4,0.5-0.4c1.9,0.2,3.6,0.7,5,1.3C7,17.1,7.1,17.4,7,17.6z M9.5,18.5c-0.4,0-0.8-0.4-0.8-0.8
		S9.1,17,9.5,17c0.4,0,0.8,0.4,0.8,0.8S9.9,18.5,9.5,18.5z M13.7,13.3c0-0.5,0.4-1,1-1h0.1c0.5,0,1,0.4,1,1v0.1c0,0.5-0.4,1-1,1
		h-0.1c-0.5,0-1-0.4-1-1V13.3z M20.1,21.2c0,0.2-0.2,0.3-0.4,0.3c0,0-0.1,0-0.1,0l-6.9-1.6c-0.2-0.1-0.4-0.3-0.3-0.5
		c0.1-0.2,0.3-0.4,0.5-0.3l6.9,1.6C20,20.7,20.1,20.9,20.1,21.2z M20.6,16.1c0,0-4-0.2-7.7,1.7c-0.1,0-0.1,0-0.2,0
		c-0.2,0-0.3-0.1-0.4-0.2c-0.1-0.2,0-0.5,0.2-0.6c3.9-2,8-1.8,8.2-1.8c0.2,0,0.4,0.2,0.4,0.5C21.1,15.9,20.9,16.1,20.6,16.1z"/>
</g>
</svg>
