<svg width="44" height="44" viewBox="0 0 44 44" xmlns="http://www.w3.org/2000/svg">
    <g fill="none" fill-rule="evenodd">
        <circle stroke="#E0E0E0" fill="#FFF" cx="22" cy="22" r="21.5"/>
        <path d="m22.295 12.075-.101.054a1.127 1.127 0 0 0-.549.97v3.093l-.113.009c-4.166.329-6.888 2.258-8.377 5.405-1.03 2.177-1.356 4.435-1.374 7.4v1.255a1.125 1.125 0 0 0 1.132 1.128c.402 0 .776-.213.983-.562l.186-.322c2.467-4.23 4.63-6.137 7.325-6.46l.238-.026v3.027c0 .435.25.83.644 1.021.406.188.876.132 1.212-.147l8.314-6.993a1.123 1.123 0 0 0-.019-1.746l-8.293-6.953a1.139 1.139 0 0 0-1.093-.2l-.115.047zm.542 1.149 8.154 6.837-8.154 6.86v-3.523a.596.596 0 0 0-.598-.596l-.238.004c-3.397.102-5.98 2.123-8.747 6.757l-.282.48v-.611c-.01-3.014.277-5.24 1.26-7.316 1.38-2.917 3.923-4.616 8.03-4.764a.596.596 0 0 0 .575-.595v-3.533z" fill="#46433F" fill-rule="nonzero"/>
    </g>
</svg>
